<svg width="28" height="28" viewBox="0 0 28 28" fill="none" xmlns="http://www.w3.org/2000/svg">
<path d="M13.3009 26.6017C20.6467 26.6017 26.6017 20.6467 26.6017 13.3009C26.6017 5.955 20.6467 0 13.3009 0C5.955 0 0 5.955 0 13.3009C0 20.6467 5.955 26.6017 13.3009 26.6017Z" fill="#FAF7F1"/>
<path d="M15.8667 27.2242C22.1392 27.2242 27.2241 22.1393 27.2241 15.8667C27.2241 9.59418 22.1392 4.50928 15.8667 4.50928C9.59412 4.50928 4.50922 9.59418 4.50922 15.8667C4.50922 22.1393 9.59412 27.2242 15.8667 27.2242Z" stroke="#747474" stroke-width="1.66261"/>
<path fill-rule="evenodd" clip-rule="evenodd" d="M6.53334 8.66215L7.72882 7.46667L24.2667 24.0045L23.0712 25.2L6.53334 8.66215Z" fill="#747474"/>
<path d="M17.9389 13.3746V8.13868H18.701C18.918 8.13868 19.0936 7.9884 19.0936 7.80269C19.0936 7.61695 18.918 7.46667 18.701 7.46667H17.5463H14.187H13.0323C12.8154 7.46667 12.6398 7.61695 12.6398 7.80269C12.6398 7.9884 12.8154 8.13868 13.0323 8.13868H13.7944V13.3746C11.1531 14.1312 9.33333 16.2745 9.33333 18.6744C9.33333 21.7582 12.2641 24.2667 15.8665 24.2667C19.4692 24.2667 22.4 21.7582 22.4 18.6744C22.4 16.2745 20.5802 14.1312 17.9389 13.3746ZM15.8665 23.5947C12.6969 23.5947 10.1184 21.3874 10.1184 18.6744C10.1184 16.4881 11.8355 14.5437 14.2943 13.9455C14.463 13.9045 14.5796 13.7726 14.5796 13.6223V8.13868H17.1538V13.6223C17.1538 13.7726 17.2703 13.9045 17.439 13.9455C19.8978 14.5437 21.6149 16.4882 21.6149 18.6744C21.6149 21.3874 19.0361 23.5947 15.8665 23.5947Z" fill="#747474" stroke="#747474"/>
<path d="M18.4809 17.2194C18.2831 17.2194 18.2031 17.1681 18.0571 17.0746C17.8761 16.9587 17.6285 16.8 17.1715 16.8C16.7148 16.8 16.4672 16.9587 16.2862 17.0746C16.1402 17.1681 16.0602 17.2194 15.8623 17.2194C15.6652 17.2194 15.5848 17.1681 15.4392 17.0746C15.2586 16.9587 15.011 16.8 14.5543 16.8C14.0976 16.8 13.85 16.9587 13.669 17.0746C13.5231 17.1681 13.443 17.2194 13.2452 17.2194C13.0448 17.2194 12.9626 17.1681 12.8137 17.0746C12.6565 16.9763 12.4414 16.8413 12.0838 16.811C11.9339 16.7983 11.7864 16.8612 11.7165 16.9697C11.3788 17.4958 11.2 18.0822 11.2 18.6657C11.2 20.7248 13.2935 22.4 15.8666 22.4C18.4399 22.4 20.5333 20.7248 20.5333 18.6657C20.5333 18.0819 20.3546 17.4952 20.0168 16.9691C19.9473 16.8609 19.8016 16.8003 19.6517 16.8101C19.2887 16.8393 19.0714 16.9754 18.9128 17.0746C18.7635 17.1681 18.6814 17.2194 18.4809 17.2194Z" fill="#747474"/>
</svg>
