<svg width="28" height="28" viewBox="0 0 28 28" fill="none" xmlns="http://www.w3.org/2000/svg">
<path d="M11.7016 23.4033C18.1643 23.4033 23.4033 18.1643 23.4033 11.7016C23.4033 5.239 18.1643 0 11.7016 0C5.239 0 0 5.239 0 11.7016C0 18.1643 5.239 23.4033 11.7016 23.4033Z" fill="#FAF7F1"/>
<path fill-rule="evenodd" clip-rule="evenodd" d="M15.6022 3.90051C9.14822 3.90051 3.90054 9.14819 3.90054 15.6022C3.90054 22.0561 9.14822 27.3038 15.6022 27.3038C22.0561 27.3038 27.3038 22.0561 27.3038 15.6022C27.3038 9.14819 22.0561 3.90051 15.6022 3.90051ZM15.6022 5.42681C21.2304 5.42681 25.7775 9.97392 25.7775 15.6022C25.7775 21.2304 21.2304 25.7775 15.6022 25.7775C9.97395 25.7775 5.42684 21.2304 5.42684 15.6022C5.42684 9.97392 9.97395 5.42681 15.6022 5.42681ZM11.2777 10.7689C10.435 10.7689 9.75136 11.4525 9.75136 12.2952C9.75136 13.1378 10.435 13.8215 11.2777 13.8215C12.1203 13.8215 12.804 13.1378 12.804 12.2952C12.804 11.4525 12.1203 10.7689 11.2777 10.7689ZM19.9267 10.7689C19.0841 10.7689 18.4004 11.4525 18.4004 12.2952C18.4004 13.1378 19.0841 13.8215 19.9267 13.8215C20.7693 13.8215 21.453 13.1378 21.453 12.2952C21.453 11.4525 20.7693 10.7689 19.9267 10.7689ZM9.92638 17.8916C9.25267 17.9224 9.06287 18.615 9.36992 19.0761C10.7343 21.1171 13.0198 22.4706 15.6023 22.4706C18.1848 22.4706 20.4704 21.1172 21.8347 19.0761C22.0573 18.7432 21.9609 18.2414 21.628 18.0188C21.2951 17.7962 20.7854 17.8926 20.5628 18.2255C19.4608 19.874 17.6542 20.9443 15.6023 20.9443C13.5505 20.9443 11.7438 19.8741 10.6418 18.2255C10.4351 17.983 10.1718 17.8777 9.92638 17.8916Z" fill="#747474" stroke="#747474" stroke-width="0.25"/>
</svg>
