<svg width="28" height="27" viewBox="0 0 28 27" fill="none" xmlns="http://www.w3.org/2000/svg">
<path d="M11.336 22.5674C17.5966 22.5674 22.6719 17.5156 22.6719 11.2837C22.6719 5.0519 17.5966 0 11.336 0C5.07528 0 0 5.0519 0 11.2837C0 17.5156 5.07528 22.5674 11.336 22.5674Z" fill="#FAF7F1"/>
<path fill-rule="evenodd" clip-rule="evenodd" d="M4.83386 16.2726C4.56271 16.2726 4.34325 16.0629 4.34325 15.8038C4.33469 13.2436 5.34262 10.7751 7.16301 8.89709C8.98439 7.01821 11.4821 5.87001 14.1544 5.68225L12.6827 4.27584C12.4863 4.09088 12.4844 3.78872 12.6779 3.60101C12.8715 3.41331 13.1876 3.41056 13.3841 3.59644L15.6605 5.79945C15.8502 5.98258 15.8502 6.27742 15.6605 6.46054L13.3841 8.65898C13.1915 8.84394 12.8791 8.84577 12.6856 8.66173C12.4911 8.47768 12.4901 8.17827 12.6827 7.9933L14.0959 6.62901C11.6958 6.82861 9.4624 7.88344 7.83842 9.58202C6.21346 11.2814 5.31673 13.5019 5.32433 15.8038C5.32433 15.9283 5.27259 16.0473 5.18061 16.1352C5.08864 16.2231 4.96408 16.2726 4.83377 16.2726H4.83386ZM19.6194 23.7735C17.5441 24.9308 15.0857 25.2889 12.744 24.7761C10.4024 24.2633 8.3531 22.9173 7.01168 21.0118L8.9346 21.509C9.06203 21.5465 9.19999 21.5328 9.31593 21.4715C9.43282 21.4092 9.51809 21.3057 9.55259 21.183C9.58708 21.0603 9.56791 20.9294 9.49989 20.8204C9.43091 20.7115 9.31976 20.6327 9.19042 20.6043L6.07467 19.8123C5.94916 19.7794 5.81502 19.7968 5.70197 19.859C5.58891 19.9213 5.50556 20.0238 5.47202 20.1447L4.6423 23.1453C4.57428 23.3953 4.72949 23.6507 4.99106 23.7176C5.03322 23.7222 5.07633 23.7222 5.11849 23.7176C5.34652 23.7249 5.54964 23.5811 5.60904 23.3705L6.14846 21.4248C7.61053 23.5656 9.87838 25.0874 12.4815 25.6743C15.0856 26.2603 17.8258 25.8675 20.1339 24.5755C20.2632 24.5197 20.3619 24.4135 20.4031 24.2834C20.4443 24.1543 20.4252 24.0143 20.3495 23.8989C20.2748 23.7835 20.1512 23.7057 20.0113 23.6846C19.8704 23.6626 19.7277 23.7011 19.6194 23.7872L19.6194 23.7735ZM26.9088 20.098C26.8743 19.9781 26.7919 19.8755 26.6779 19.8142C26.5648 19.7529 26.4307 19.7373 26.3052 19.7703L24.2845 20.2903C25.463 17.982 25.6891 15.3348 24.9159 12.8745C24.1427 10.4152 22.4286 8.32384 20.1149 7.01821C20.0018 6.94954 19.8648 6.92848 19.7345 6.95869C19.6051 6.98891 19.494 7.06857 19.4269 7.17936C19.3599 7.29016 19.3436 7.42202 19.38 7.5447C19.4173 7.6674 19.5055 7.76995 19.6243 7.82946C21.7025 9.00239 23.2488 10.8739 23.9618 13.0789C24.6736 15.2838 24.5002 17.6627 23.475 19.7512L22.9845 17.9044C22.9577 17.7771 22.8781 17.6663 22.7632 17.5985C22.6482 17.5299 22.5093 17.5097 22.378 17.5427C22.2477 17.5756 22.1366 17.659 22.0724 17.7725C22.0072 17.886 21.9948 18.0206 22.0379 18.1433L22.8714 21.1484C22.905 21.2692 22.9874 21.3727 23.1004 21.435C23.2144 21.4974 23.3486 21.5137 23.475 21.4808L26.5851 20.6741V20.675C26.8391 20.5981 26.9828 20.3426 26.909 20.0982L26.9088 20.098Z" fill="#747474" stroke="#747474" stroke-width="0.55"/>
</svg>
