<svg width="27" height="28" viewBox="0 0 27 28" fill="none" xmlns="http://www.w3.org/2000/svg">
<path d="M12.3116 24.6232C19.1111 24.6232 24.6232 19.1111 24.6232 12.3116C24.6232 5.51209 19.1111 0 12.3116 0C5.51209 0 0 5.51209 0 12.3116C0 19.1111 5.51209 24.6232 12.3116 24.6232Z" fill="#FAF7F1"/>
<path d="M17.6676 8.58845L17.0347 8.49377L16.7529 7.93299C16.6007 7.63169 16.2901 7.44326 15.9498 7.44033C15.6066 7.43711 15.2981 7.62241 15.1449 7.91883L14.8592 8.47628L14.2254 8.55982C13.8857 8.60482 13.6057 8.83066 13.5001 9.14803C13.3945 9.46539 13.4805 9.8076 13.7268 10.0446L14.1838 10.4831L14.0753 11.0958C14.0181 11.4257 14.1535 11.7534 14.4321 11.9507C14.5649 12.0444 14.7167 12.1007 14.8698 12.1168C15.0406 12.1348 15.2166 12.1035 15.3769 12.0246L15.9447 11.7389L16.5125 12.0332C16.8159 12.1909 17.1805 12.1691 17.459 11.9751C17.7373 11.7819 17.8749 11.4557 17.8166 11.1258L17.7087 10.5101L18.1668 10.0796C18.4136 9.84747 18.5012 9.50568 18.3947 9.18854C18.2865 8.86935 18.0085 8.6393 17.6676 8.58845ZM16.7941 9.97005C16.6743 10.0832 16.6175 10.248 16.6445 10.4114L16.7518 11.0336L16.1796 10.736C16.0302 10.6574 15.8521 10.6556 15.7013 10.7327L15.1267 11.0214L15.2388 10.4006C15.2681 10.2385 15.213 10.0751 15.091 9.95903L14.626 9.51694L15.2675 9.43139C15.4351 9.40865 15.5806 9.30945 15.6553 9.16152L15.9445 8.59785L16.2303 9.1647C16.3057 9.3134 16.4497 9.41582 16.6171 9.43997L17.2583 9.53553L16.7941 9.97005ZM23.6292 10.1197L23.1713 10.5483L23.2796 11.1604C23.3375 11.493 23.2003 11.8165 22.9218 12.0105C22.6434 12.2046 22.2813 12.2295 21.9769 12.0717L21.4101 11.7775L20.8423 12.0632C20.6787 12.1464 20.5021 12.1748 20.3322 12.1569C20.1763 12.1405 20.0244 12.0852 19.8901 11.9885C19.6136 11.7886 19.4782 11.4609 19.5388 11.1341L19.5637 10.9866C19.6109 10.7156 19.8742 10.5322 20.1561 10.5824C20.4052 10.6236 20.5803 10.8325 20.5839 11.0657L21.1687 10.7705C21.319 10.6971 21.4972 10.698 21.6469 10.7738L22.2199 11.0724L22.11 10.449C22.0801 10.2863 22.136 10.1205 22.2595 10.0086L22.7254 9.57614L22.085 9.48069C21.9168 9.45643 21.7727 9.35401 21.6982 9.20541L21.4115 8.63847L21.1221 9.20492C21.0475 9.35193 20.9027 9.45215 20.7353 9.47396L20.0832 9.56215C20.2178 9.75461 20.2005 10.0174 20.0294 10.19C19.8331 10.388 19.508 10.3914 19.303 10.199L19.1929 10.0945C18.944 9.85535 18.8589 9.51324 18.9643 9.19773C19.0699 8.88037 19.3468 8.65702 19.6852 8.60718L20.3236 8.52413L20.6092 7.9676C20.7597 7.66997 21.068 7.48652 21.4105 7.48779C21.7547 7.48925 22.0654 7.67675 22.2166 7.97888L22.5011 8.53996L23.134 8.63463C23.4725 8.68241 23.7506 8.91153 23.8568 9.23145C23.9654 9.546 23.8779 9.88779 23.6292 10.1197ZM12.9252 9.14485C12.8189 8.82585 12.5418 8.5959 12.1999 8.54495L11.567 8.45027L11.2852 7.89042C11.1339 7.58828 10.8251 7.40098 10.483 7.39693C10.1399 7.39371 9.83042 7.57891 9.6781 7.87635L9.39249 8.43288L8.75869 8.51642C8.418 8.56132 8.13898 8.78726 8.03337 9.10463C7.92775 9.42199 8.01285 9.7641 8.25916 10.0011L8.71703 10.4397L8.60852 11.0524C8.55039 11.3822 8.68674 11.71 8.96538 11.9073C9.09715 12.0018 9.24992 12.0573 9.40215 12.0733C9.57387 12.0913 9.74984 12.0601 9.91006 11.9822L10.478 11.6946L11.0429 11.9905C11.3463 12.1481 11.7109 12.1264 11.9893 11.9323C12.2678 11.7382 12.4053 11.412 12.3471 11.0821L12.2382 10.4663L12.6964 10.0358C12.9429 9.80646 13.0304 9.46467 12.9252 9.14485ZM11.3286 9.93241C11.2088 10.0456 11.1531 10.2096 11.1791 10.3728L11.2872 10.996L10.7142 10.6974C10.5648 10.6189 10.3866 10.618 10.236 10.6941L9.66129 10.9828L9.77336 10.363C9.80353 10.201 9.74752 10.0374 9.62551 9.92139L9.16154 9.47847L9.80296 9.39385C9.97052 9.37111 10.1153 9.27089 10.1898 9.12388L10.479 8.56022L10.7658 9.12623C10.8403 9.27483 10.9844 9.37725 11.1525 9.40243L11.7929 9.49789L11.3286 9.93241ZM24.4064 19.574C24.5086 19.3163 24.3764 19.0293 24.1101 18.9291C23.8448 18.828 23.5472 18.9544 23.4478 19.2123C23.2721 19.6603 23.0586 20.0667 22.7987 20.4504L22.8077 14.1768L24.2987 14.188C24.217 15.7241 24.0787 16.8977 23.8656 17.8448C23.8063 18.1144 23.979 18.3813 24.2573 18.4396C24.2774 18.4446 24.295 18.4464 24.3155 18.4486C24.5716 18.4755 24.813 18.3132 24.8674 18.0636C25.1152 16.956 25.2714 15.5769 25.3495 13.7269L25.3526 13.6972C25.3531 13.6926 25.3508 13.6876 25.3511 13.6848C25.4321 11.8333 25.4428 9.57083 25.4472 7.01958C25.4481 6.61894 25.2886 6.24275 24.9959 5.95671C24.7068 5.67107 24.32 5.51216 23.9074 5.50915L21.0745 5.48732C20.7903 5.4856 20.5607 5.70641 20.5598 5.98223C20.559 6.25805 20.7861 6.48181 21.0729 6.48475L23.9048 6.50648C24.0425 6.50876 24.1732 6.56003 24.269 6.65738C24.3678 6.75316 24.4193 6.87964 24.4204 7.01208C24.4174 9.35325 24.4068 11.4449 24.3414 13.193L17.2098 13.1398L14.6713 13.1217L14.6685 13.1214L14.6657 13.1211L12.1294 13.0995L12.1192 13.0984L9.58346 13.0806L7.5373 13.0654C7.50967 12.2657 7.49385 11.3894 7.48681 10.3939C7.48486 10.1178 7.25556 9.89753 6.96859 9.89553C6.68515 9.89577 6.45704 10.1195 6.45899 10.3957C6.46821 11.5847 6.48968 12.6128 6.52402 13.5361L6.52168 13.5583C6.52241 13.5781 6.52584 13.5991 6.52872 13.6163C6.71312 18.1479 7.38655 20.2946 9.18628 22.0829C9.18887 22.0851 9.19166 22.0853 9.19415 22.0884C9.1985 22.0917 9.20079 22.0966 9.20617 22.0991C9.85626 22.7446 10.6661 23.3609 11.8306 24.0951C12.6489 24.6128 13.5873 25.1497 14.3969 25.6083L15.1543 26.0361C15.3447 26.1443 15.5547 26.2087 15.7663 26.2309C16.081 26.264 16.4047 26.2023 16.6845 26.0496C16.95 25.9067 17.2024 25.7652 17.4495 25.6279C18.5563 25.0179 19.3485 24.5615 20.0164 24.1531C21.1834 23.4339 21.9959 22.8296 22.6492 22.1944C23.4489 21.416 24.0086 20.5823 24.4074 19.5741L24.4064 19.574ZM17.7224 14.1387L19.2386 14.1507L19.2241 23.4589C18.7933 23.7186 18.3019 24.0001 17.7063 24.3364L17.7224 14.1387ZM7.5761 14.0624L9.06524 14.0734L9.05694 20.3491C8.13702 18.9761 7.73429 17.1826 7.57703 14.0625L7.5761 14.0624ZM15.6662 25.1749L15.1639 24.8912L15.1675 22.6956C15.1683 22.4207 14.9357 22.1954 14.6544 22.194C14.3712 22.1915 14.1415 22.4123 14.1406 22.689L14.1385 24.3077C13.6295 24.0158 13.1119 23.708 12.6221 23.4041L12.6308 17.99C12.6316 17.7151 12.4018 17.4901 12.1178 17.4875C11.8336 17.4858 11.6039 17.7066 11.604 17.9825L11.5965 22.7416C10.9803 22.3184 10.4933 21.934 10.0827 21.5455L10.0946 14.084L11.609 14.0959L11.6045 16.451C11.6027 16.7089 11.8054 16.9235 12.0662 16.9509C12.0839 16.9527 12.0987 16.9543 12.1176 16.9535C12.4007 16.956 12.6304 16.7352 12.6313 16.4585L12.6358 14.1034L14.1531 14.1146L14.1423 21.2177C14.1414 21.4757 14.3433 21.6893 14.6041 21.7167C14.6227 21.7186 14.6375 21.7202 14.6554 21.7202C14.9395 21.7219 15.1692 21.5011 15.17 21.2253L15.1799 14.1221L16.6952 14.134L16.6778 24.9077L16.1767 25.1835C16.0206 25.2675 15.8247 25.2648 15.6662 25.1749ZM20.253 22.804L20.2667 14.1556L21.7812 14.1665L21.7681 21.6306C21.3562 22.0134 20.8699 22.3903 20.253 22.804ZM6.44974 6.87635C6.45215 6.04981 7.14361 5.38203 7.99214 5.38957L18.1684 5.46623C18.4579 5.47131 18.6823 5.69292 18.6815 5.96875C18.6806 6.24457 18.451 6.46537 18.1668 6.46366L7.99156 6.38617C7.70748 6.38352 7.47752 6.60711 7.47668 6.88293L7.47663 7.49951C7.47656 7.99126 7.47556 8.46508 7.47763 8.91859C7.47865 9.1946 7.24889 9.41633 6.96544 9.41657C6.94668 9.41648 6.92905 9.41463 6.91141 9.41277C6.65336 9.38565 6.45132 9.17391 6.44938 8.91562L6.44886 7.4919L6.44984 6.87543L6.44974 6.87635ZM19.109 6.01744C19.1049 5.9851 19.1067 5.94963 19.1102 5.91714C19.1135 5.88558 19.1188 5.85329 19.1296 5.82158C19.1401 5.79266 19.1519 5.76105 19.1671 5.73261C19.1832 5.70428 19.2012 5.67613 19.2254 5.65146C19.2456 5.62825 19.2689 5.60348 19.2972 5.58393C19.3218 5.564 19.35 5.54631 19.3799 5.52974C19.4096 5.51503 19.439 5.50311 19.4737 5.49455C19.5056 5.48571 19.5373 5.47872 19.5715 5.4748C19.741 5.45978 19.9116 5.53308 20.0166 5.65954C20.0402 5.68455 20.0578 5.71362 20.0738 5.74063C20.0875 5.77023 20.1031 5.80096 20.112 5.83193C20.1219 5.863 20.1287 5.89656 20.1301 5.92768C20.1352 5.96012 20.1345 5.9929 20.1312 6.02446C20.1278 6.05694 20.1213 6.09192 20.1106 6.1227C20.1019 6.15182 20.0882 6.18323 20.073 6.2126C20.0569 6.24001 20.0352 6.26776 20.0147 6.29375C19.9945 6.31603 19.9712 6.34173 19.9428 6.36128C19.8394 6.44332 19.7031 6.48154 19.5676 6.4673C19.5351 6.46388 19.502 6.45759 19.469 6.44943C19.4364 6.4385 19.4069 6.42414 19.3775 6.40978C19.3463 6.39337 19.3191 6.37549 19.2931 6.35493C19.267 6.3353 19.2434 6.31029 19.2235 6.28567C19.1998 6.26066 19.1823 6.23067 19.1663 6.20458C19.1497 6.17469 19.1371 6.14332 19.1272 6.11226C19.1182 6.08128 19.1133 6.04792 19.109 6.01744Z" fill="#747474"/>
</svg>
