<svg width="28" height="28" viewBox="0 0 28 28" fill="none" xmlns="http://www.w3.org/2000/svg">
<path d="M11.7013 23.4026C18.1637 23.4026 23.4026 18.1637 23.4026 11.7013C23.4026 5.23885 18.1637 0 11.7013 0C5.23885 0 0 5.23885 0 11.7013C0 18.1637 5.23885 23.4026 11.7013 23.4026Z" fill="#FAF7F1"/>
<path fill-rule="evenodd" clip-rule="evenodd" d="M26.3291 3.90015H23.4026C18.5279 3.90015 14.6269 7.80118 14.6269 12.6768V13.067C12.9694 11.116 10.5316 9.75215 7.80118 9.75215H4.87563C4.29034 9.75215 3.90015 10.1414 3.90015 10.7267V13.6523C3.90015 18.5279 7.80118 22.428 12.6768 22.428H14.6278V26.3291C14.6278 26.9134 15.017 27.3045 15.6023 27.3045C16.1876 27.3045 16.5778 26.9134 16.5778 26.3291V20.478H18.5279C23.4035 20.478 27.3036 16.5769 27.3036 11.7013V4.87563C27.3036 4.29034 26.9134 3.90015 26.3281 3.90015H26.3291ZM12.6768 20.478C8.87421 20.478 5.85111 17.4549 5.85111 13.6523V11.7013H7.80118C11.6038 11.7013 14.6269 14.7244 14.6269 18.5279V20.478H12.6768ZM25.3536 11.7013C25.3536 15.5048 22.3305 18.5279 18.5279 18.5279H16.5769V12.6768C16.5769 8.87421 19.6 5.85111 23.4035 5.85111H25.3536V11.7013Z" fill="#747474"/>
</svg>
