<svg width="28" height="28" viewBox="0 0 28 28" fill="none" xmlns="http://www.w3.org/2000/svg">
<g clip-path="url(#clip0_1_157)">
<path d="M12.0917 24.1834C18.7698 24.1834 24.1834 18.7698 24.1834 12.0917C24.1834 5.41364 18.7698 0 12.0917 0C5.41364 0 0 5.41364 0 12.0917C0 18.7698 5.41364 24.1834 12.0917 24.1834Z" fill="#FAF7F1"/>
<path fill-rule="evenodd" clip-rule="evenodd" d="M12.4706 20.9999H16.9936C18.5508 20.9999 19.5395 20.0486 19.5395 18.5641C19.5395 16.7938 18.1145 16.299 16.5937 16.299H12.4706V20.9999ZM12.4706 14.7764H16.082C18.133 14.7764 18.9699 14.0344 18.9699 12.6065C18.9699 10.7221 17.6405 10.4562 16.082 10.4562H12.4706V14.7764ZM10.6666 8.93335H15.5868C16.7845 8.93335 18.3612 8.93335 19.178 9.42821C20.0711 9.96105 20.7734 10.9318 20.7734 12.2644C20.7734 13.7107 20.0145 14.7957 18.7601 15.309V15.3473C20.4329 15.6897 21.344 16.946 21.344 18.6213C21.344 20.619 19.9187 22.5227 17.2214 22.5227H10.6666V8.93335Z" fill="#7F7F7F"/>
<mask id="mask0_1_157" style="mask-type:alpha" maskUnits="userSpaceOnUse" x="3" y="3" width="25" height="25">
<path d="M3.73328 3.85144H27.883V28H3.73328V3.85144Z" fill="white"/>
</mask>
<g mask="url(#mask0_1_157)">
<path fill-rule="evenodd" clip-rule="evenodd" d="M15.8069 3.85132C9.13937 3.85132 3.73315 9.25728 3.73315 15.9259C3.73315 22.5937 9.13937 28.0002 15.8069 28.0002C22.4768 28.0002 27.883 22.5937 27.883 15.9259C27.883 9.25728 22.4768 3.85132 15.8069 3.85132ZM26.2906 15.9316C26.2906 21.7211 21.5979 26.4146 15.8069 26.4146C10.018 26.4146 5.32525 21.7211 5.32525 15.9316C5.32525 10.1426 10.018 5.45017 15.8069 5.45017C21.5979 5.45017 26.2906 10.1426 26.2906 15.9316Z" fill="#7F7F7F"/>
</g>
</g>
<defs>
<clipPath id="clip0_1_157">
<rect width="28" height="28" fill="white"/>
</clipPath>
</defs>
</svg>
